<svg xmlns="http://www.w3.org/2000/svg" version="1.1" xmlns:xlink="http://www.w3.org/1999/xlink" xmlns:svgjs="http://svgjs.dev/svgjs" width="1500" height="1505" viewBox="0 0 1500 1505"><g transform="matrix(1,0,0,1,0,-2.677716523024287)"><svg viewBox="0 0 280 281" data-background-color="#ffffff" preserveAspectRatio="xMidYMid meet" height="1505" width="1500" xmlns="http://www.w3.org/2000/svg" xmlns:xlink="http://www.w3.org/1999/xlink"><g id="tight-bounds" transform="matrix(1,0,0,1,0,0.5000423685383453)"><svg viewBox="0 0 280 280" height="280" width="280"><g><svg viewBox="0 0 280 280" height="280" width="280"><g><svg viewBox="0 0 280 280" height="280" width="280"><g id="textblocktransform"><svg viewBox="0 0 280 280" height="280" width="280" id="textblock"><g><svg viewBox="0 0 280 280" height="280" width="280"><g transform="matrix(1,0,0,1,98.5021171849107,90.50252531694167)"><svg viewBox="0 0 82.99576563017861 98.99494936611666" height="98.99494936611666" width="82.99576563017861"><g id="icon-0"><svg xmlns="http://www.w3.org/2000/svg" xmlns:xlink="http://www.w3.org/1999/xlink" version="1.1" x="0" y="0" viewBox="90 58 332 396" enable-background="new 0 0 512 512" xml:space="preserve" height="98.99494936611666" width="82.99576563017861" class="icon-jxe-0" data-fill-palette-color="accent" id="jxe-0"><g fill="#301c3b" data-fill-palette-color="accent"><g fill="#301c3b" data-fill-palette-color="accent"><polygon points="186.634,189.317 153.292,256 186.634,322.683 197.366,317.317 166.708,256 197.366,194.683   " fill="#301c3b" data-fill-palette-color="accent"></polygon><polygon points="314.634,194.683 345.292,256 314.634,317.317 325.366,322.683 358.708,256 325.366,189.317   " fill="#301c3b" data-fill-palette-color="accent"></polygon><rect x="250" y="158.676" transform="matrix(-0.9864 -0.1644 0.1644 -0.9864 466.4307 550.603)" width="11.999" height="194.648" fill="#301c3b" data-fill-palette-color="accent"></rect><path d="M354.485 58H90V454H422V125.515zM358 78.485L401.515 122H358zM102 442V70H346V134H410V442z" fill="#301c3b" data-fill-palette-color="accent"></path></g></g></svg></g></svg></g><g id="text-0"><path d="M33.964 102.028l-1.95 5.508c-0.441 1.245-0.934 2.136-1.479 2.675-0.544 0.532-1.211 0.784-2.003 0.755-0.793-0.023-1.781-0.244-2.964-0.663v0l-16.292-5.767c-1.208-0.427-2.124-0.881-2.748-1.36-0.627-0.473-0.981-1.086-1.063-1.84-0.079-0.76 0.101-1.762 0.541-3.006v0l1.766-4.988c1.026-2.898 2.348-4.939 3.965-6.123 1.617-1.183 3.392-1.433 5.324-0.749v0c0.954 0.338 1.747 0.862 2.38 1.574 0.631 0.718 1.1 1.529 1.408 2.432 0.307 0.903 0.453 1.822 0.435 2.757v0l0.074 0.026c0.519-1.015 1.207-1.855 2.063-2.52 0.854-0.659 1.808-1.092 2.863-1.297 1.061-0.203 2.159-0.103 3.292 0.298v0c1.697 0.601 2.977 1.51 3.842 2.729 0.869 1.227 1.34 2.662 1.413 4.305 0.082 1.639-0.207 3.39-0.867 5.254zM13.06 99.28l12.855 4.55c0.811 0.287 1.445 0.348 1.901 0.182 0.45-0.168 0.816-0.652 1.099-1.451v0l0.487-1.374c0.432-1.22 0.467-2.312 0.104-3.277-0.369-0.967-1.098-1.643-2.188-2.029v0c-1.034-0.366-1.977-0.292-2.827 0.222-0.851 0.514-1.479 1.344-1.885 2.49v0l0.007-0.019c-0.103 0.291-0.221 0.497-0.355 0.617v0c-0.32 0.235-0.676 0.472-1.066 0.71-0.391 0.238-0.846 0.481-1.366 0.728v0c-0.199 0.069-0.335 0.09-0.41 0.065v0c-0.099-0.035-0.192-0.138-0.278-0.308v0c-0.254-0.522-0.461-1-0.621-1.432-0.154-0.431-0.275-0.836-0.364-1.216v0c-0.019-0.202 0.018-0.436 0.112-0.703v0l-0.006 0.019c0.252-0.712 0.218-1.463-0.102-2.252-0.322-0.783-1.053-1.376-2.192-1.779v0c-1.146-0.406-2.023-0.357-2.633 0.144-0.606 0.51-1.086 1.267-1.441 2.27v0l-0.346 0.976c-0.283 0.799-0.308 1.403-0.077 1.812 0.238 0.412 0.768 0.763 1.592 1.055z" fill="#0074d9" data-fill-palette-color="primary"></path><path d="M45.078 81.33v0c-2.491 3.826-6.054 4.23-10.689 1.212v0l-8.202-5.317c-0.259-0.168-0.423-0.35-0.492-0.544v0c-0.295-0.835-0.504-1.911-0.626-3.229v0c-0.01-0.226 0.023-0.397 0.098-0.512v0c0.09-0.138 0.232-0.237 0.429-0.297v0c0.653-0.233 1.239-0.404 1.757-0.514 0.516-0.119 0.999-0.192 1.449-0.221v0c0.209-0.021 0.443 0.053 0.702 0.222v0l7.746 5.043c2.329 1.516 4.093 1.352 5.294-0.492v0c0.595-0.914 0.752-1.854 0.472-2.82-0.28-0.966-0.968-1.806-2.064-2.519v0l-7.679-5c-0.259-0.168-0.423-0.35-0.492-0.544v0c-0.295-0.835-0.504-1.911-0.626-3.229v0c-0.01-0.226 0.023-0.397 0.099-0.512v0c0.09-0.138 0.232-0.237 0.428-0.297v0c0.653-0.233 1.239-0.404 1.757-0.514 0.516-0.119 0.999-0.192 1.449-0.221v0c0.209-0.021 0.443 0.053 0.702 0.222v0l13.997 9.113c0.204 0.133 0.333 0.319 0.388 0.559 0.054 0.231 0.01 0.454-0.129 0.668v0l-1.575 2.42c-0.111 0.171-0.236 0.309-0.376 0.414-0.136 0.1-0.312 0.166-0.528 0.197v0l-1.939 0.16-0.069 0.107c0.133 0.337 0.243 0.789 0.329 1.355 0.092 0.569 0.034 1.272-0.174 2.109-0.208 0.837-0.686 1.83-1.436 2.981z" fill="#0074d9" data-fill-palette-color="primary"></path><path d="M48.866 48.401l1.008 1.012 0.049-0.049c-1.203-2.576-0.918-4.747 0.855-6.513v0c0.223-0.223 0.421-0.396 0.593-0.521 0.167-0.12 0.288-0.199 0.363-0.236v0c0.181-0.088 0.353-0.05 0.515 0.112v0l3.276 3.288c0.278 0.279 0.192 0.518-0.259 0.717v0c-0.158 0.065-0.365 0.174-0.621 0.326-0.251 0.157-0.558 0.417-0.921 0.779v0c-0.935 0.932-1.325 2.002-1.169 3.21 0.156 1.208 0.822 2.403 2 3.585v0l5.925 5.947c0.269 0.27 0.399 0.516 0.389 0.739-0.01 0.214-0.152 0.457-0.427 0.731v0l-2.806 2.796c-0.275 0.274-0.519 0.415-0.732 0.423-0.218 0.004-0.462-0.129-0.731-0.398v0l-11.385-11.427c-0.218-0.219-0.341-0.43-0.368-0.634v0c-0.064-0.446-0.091-0.934-0.081-1.464 0.001-0.53 0.049-1.138 0.143-1.825v0c0.019-0.13 0.056-0.241 0.112-0.334 0.051-0.088 0.105-0.16 0.161-0.216v0c0.126-0.125 0.3-0.206 0.523-0.243v0c1.343-0.16 2.369-0.181 3.08-0.064v0c0.195 0.028 0.364 0.114 0.508 0.259z" fill="#0074d9" data-fill-palette-color="primary"></path><path d="M75.292 50.094v0c-1.56 1.058-3.097 1.461-4.609 1.21-1.512-0.252-2.79-1.147-3.834-2.686v0c-0.542-0.799-0.899-1.641-1.07-2.525-0.171-0.884-0.072-1.832 0.297-2.845 0.371-1.021 1.102-2.137 2.195-3.346 1.096-1.204 2.645-2.525 4.647-3.962v0c-0.656-0.968-1.37-1.499-2.142-1.595-0.766-0.1-1.633 0.179-2.6 0.835v0c-0.87 0.59-1.481 1.223-1.833 1.898-0.35 0.666-0.559 1.101-0.626 1.306v0c-0.062 0.225-0.208 0.395-0.439 0.512v0c-0.318 0.152-0.674 0.282-1.068 0.391-0.396 0.118-0.827 0.232-1.292 0.341v0c-0.069 0.015-0.151 0.023-0.246 0.024-0.093-0.008-0.178-0.058-0.256-0.148v0c-0.037-0.054-0.076-0.123-0.116-0.207-0.044-0.089-0.12-0.252-0.225-0.49v0c-0.1-0.242-0.214-0.549-0.341-0.924-0.129-0.365-0.212-0.658-0.25-0.878v0c-0.028-0.251 0.017-0.531 0.132-0.84v0c0.08-0.268 0.464-0.878 1.153-1.829 0.692-0.946 1.902-2.005 3.631-3.178v0c4.768-3.234 8.724-2.532 11.869 2.105v0l6.112 9.011c0.136 0.201 0.197 0.414 0.183 0.638-0.013 0.215-0.152 0.413-0.419 0.593v0l-2.389 1.621c-0.169 0.114-0.337 0.193-0.506 0.236-0.164 0.04-0.351 0.032-0.563-0.022v0l-1.85-0.603-0.106 0.072c-0.006 1.044-0.313 2.002-0.92 2.874-0.609 0.881-1.449 1.685-2.519 2.411zM74.539 45.211v0c0.973-0.66 1.54-1.41 1.701-2.249 0.161-0.839 0.13-1.569-0.091-2.188v0l-1.201-1.77c-1.473 0.999-2.502 1.864-3.086 2.594-0.579 0.726-0.867 1.354-0.865 1.884 0.006 0.536 0.153 1.015 0.441 1.44v0c0.417 0.614 0.896 0.912 1.439 0.893 0.543-0.019 1.097-0.22 1.662-0.604z" fill="#0074d9" data-fill-palette-color="primary"></path><path d="M94.766 30.014l2.574 6.537c0.14 0.355 0.161 0.632 0.063 0.833-0.094 0.192-0.321 0.359-0.682 0.501v0l-3.685 1.452c-0.361 0.142-0.641 0.175-0.841 0.098-0.202-0.083-0.373-0.301-0.512-0.656v0l-9.538-24.223c-0.113-0.287-0.143-0.533-0.089-0.738v0c0.244-0.851 0.698-1.849 1.363-2.993v0c0.125-0.184 0.252-0.301 0.38-0.352v0c0.153-0.06 0.325-0.061 0.518-0.002v0c0.67 0.195 1.246 0.395 1.73 0.6 0.492 0.209 0.928 0.429 1.308 0.66v0c0.185 0.111 0.334 0.31 0.447 0.597v0l5.531 14.046 0.21-0.083c1.815-0.715 2.919-1.524 3.313-2.426 0.399-0.905 0.37-1.939-0.088-3.101v0l-0.379-0.962c-0.113-0.287-0.142-0.53-0.086-0.729v0c0.241-0.857 0.694-1.858 1.359-3.003v0c0.125-0.184 0.252-0.301 0.381-0.351v0c0.159-0.063 0.332-0.063 0.518-0.002v0c0.67 0.195 1.249 0.394 1.739 0.596 0.486 0.211 0.92 0.436 1.302 0.673v0c0.182 0.105 0.33 0.301 0.444 0.588v0l0.379 0.963c0.27 0.685 0.431 1.489 0.485 2.414 0.056 0.931-0.144 1.85-0.599 2.756-0.459 0.915-1.314 1.682-2.567 2.303v0l0.033 0.082c1.178 0.051 2.274 0.298 3.287 0.739 1.014 0.441 1.928 0.978 2.742 1.61 0.816 0.639 1.508 1.284 2.075 1.937 0.567 0.652 0.994 1.225 1.281 1.719v0c0.288 0.48 0.218 0.804-0.21 0.972v0l-4.713 1.856c-0.403 0.159-0.732 0.006-0.985-0.459v0c-0.307-0.529-0.747-1.118-1.321-1.767-0.58-0.647-1.248-1.242-2.005-1.784-0.763-0.54-1.57-0.921-2.42-1.144-0.85-0.223-1.694-0.17-2.531 0.16v0z" fill="#0074d9" data-fill-palette-color="primary"></path><path d="M137.969 29.669v0c-4.279 0.192-6.518-1.937-6.718-6.386v0l-0.404-9.007-2.165 0.097c-0.387 0.017-0.657-0.053-0.809-0.21-0.158-0.151-0.246-0.42-0.263-0.807v0l-0.106-2.363c-0.017-0.387 0.046-0.663 0.19-0.827 0.137-0.164 0.4-0.255 0.787-0.272v0l2.165-0.097-0.139-3.101c-0.014-0.308 0.041-0.548 0.165-0.717v0c0.507-0.726 1.26-1.523 2.26-2.39v0c0.171-0.139 0.329-0.212 0.474-0.218v0c0.151-0.007 0.308 0.052 0.471 0.176v0c0.57 0.395 1.051 0.772 1.442 1.129 0.397 0.35 0.738 0.7 1.023 1.049v0c0.132 0.158 0.205 0.392 0.219 0.7v0l0.139 3.101 3.406-0.153c0.381-0.017 0.65 0.05 0.808 0.2 0.151 0.151 0.236 0.42 0.253 0.808v0l0.106 2.362c0.017 0.387-0.043 0.663-0.18 0.827-0.144 0.171-0.406 0.265-0.786 0.282v0l-3.406 0.152 0.357 7.954c0.092 2.047 0.883 3.038 2.372 2.971v0c0.23-0.01 0.439-0.043 0.627-0.097 0.195-0.048 0.36-0.102 0.496-0.161v0c0.264-0.117 0.453-0.165 0.565-0.143 0.106 0.022 0.211 0.158 0.315 0.41v0l1.246 2.932c0.133 0.316 0.067 0.549-0.196 0.7v0c-0.193 0.101-0.651 0.292-1.374 0.574-0.724 0.282-1.837 0.457-3.34 0.525z" fill="#0074d9" data-fill-palette-color="primary"></path><path d="M157.01 17.534l-1.681 11.834c-0.054 0.377-0.172 0.629-0.356 0.755-0.176 0.121-0.456 0.154-0.841 0.1v0l-3.921-0.557c-0.384-0.055-0.643-0.164-0.779-0.33-0.135-0.172-0.175-0.446-0.122-0.823v0l3.662-25.774c0.043-0.306 0.139-0.534 0.286-0.686v0c0.632-0.62 1.52-1.264 2.663-1.931v0c0.2-0.098 0.368-0.137 0.505-0.117v0c0.163 0.023 0.313 0.108 0.451 0.253v0c0.486 0.5 0.889 0.959 1.208 1.376 0.325 0.424 0.595 0.831 0.812 1.22v0c0.106 0.188 0.137 0.434 0.094 0.74v0l-1.313 9.238 0.069 0.01c0.332-0.331 0.75-0.653 1.252-0.967 0.495-0.308 1.131-0.536 1.908-0.684 0.784-0.147 1.752-0.139 2.903 0.024v0c1.171 0.166 2.262 0.567 3.273 1.202 1.011 0.635 1.777 1.573 2.297 2.815 0.527 1.243 0.65 2.852 0.369 4.829v0l-1.582 11.131c-0.054 0.377-0.172 0.629-0.356 0.756-0.176 0.121-0.456 0.154-0.84 0.099v0l-3.922-0.557c-0.384-0.055-0.643-0.164-0.779-0.33-0.135-0.172-0.175-0.446-0.122-0.823v0l1.432-10.078c0.201-1.411 0.054-2.48-0.44-3.207-0.495-0.721-1.243-1.152-2.245-1.294v0c-0.995-0.141-1.796-0.036-2.403 0.315-0.601 0.353-1.095 0.84-1.482 1.461z" fill="#0074d9" data-fill-palette-color="primary"></path><path d="M184.152 38.767v0c-2.016-0.797-3.64-1.816-4.873-3.059-1.235-1.237-1.993-2.705-2.274-4.406-0.284-1.694 0.003-3.626 0.859-5.795v0c1.289-3.262 3.1-5.397 5.434-6.403 2.327-1.009 4.874-0.966 7.641 0.127v0c1.802 0.712 3.2 1.635 4.193 2.77 0.99 1.14 1.586 2.403 1.787 3.789 0.205 1.395 0.02 2.819-0.555 4.273v0c-0.56 1.417-1.315 2.263-2.264 2.538-0.955 0.272-2.129 0.133-3.522-0.417v0l-7.679-3.035c-0.388 1.267-0.305 2.38 0.248 3.34 0.551 0.966 1.516 1.722 2.897 2.268v0c1.1 0.435 2.045 0.617 2.834 0.548 0.79-0.069 1.354-0.147 1.692-0.232v0c0.297-0.073 0.584-0.048 0.86 0.075v0c0.226 0.089 0.536 0.261 0.93 0.516 0.385 0.258 0.739 0.589 1.06 0.991v0c0.239 0.271 0.304 0.544 0.196 0.819v0c-0.063 0.159-0.181 0.37-0.356 0.633v0c-0.096 0.153-0.249 0.371-0.461 0.655-0.209 0.278-0.431 0.529-0.668 0.753v0c-0.126 0.105-0.289 0.186-0.488 0.241v0c-0.306 0.077-0.779 0.148-1.419 0.213-0.638 0.059-1.457 0.014-2.458-0.134-1.005-0.157-2.209-0.513-3.614-1.068zM184.314 25.46v0l5.838 2.307c0.611 0.241 1.026 0.084 1.245-0.472v0c0.336-0.849 0.352-1.669 0.051-2.459-0.305-0.784-0.988-1.386-2.052-1.807v0c-1.155-0.456-2.15-0.422-2.985 0.102-0.836 0.524-1.535 1.301-2.097 2.329z" fill="#0074d9" data-fill-palette-color="primary"></path><path d="M217.854 60.499l-4.348-3.991c-0.973-0.893-1.6-1.696-1.881-2.409-0.277-0.709-0.247-1.421 0.089-2.138 0.332-0.721 0.922-1.544 1.771-2.468v0l11.686-12.732c0.866-0.944 1.642-1.609 2.328-1.997 0.681-0.392 1.384-0.478 2.109-0.257 0.73 0.224 1.582 0.783 2.554 1.675v0l4.349 3.992c2.033 1.866 3.533 3.8 4.502 5.804 0.974 2.009 1.223 4.123 0.746 6.342-0.468 2.219-1.856 4.587-4.166 7.104v0c-2.305 2.512-4.586 4.141-6.841 4.889-2.246 0.747-4.449 0.762-6.609 0.045-2.16-0.707-4.256-1.994-6.289-3.859zM232.055 42.959l-0.624-0.573c-0.624-0.573-1.17-0.833-1.638-0.781-0.472 0.057-1.003 0.408-1.594 1.051v0l-8.581 9.35c-0.582 0.634-0.886 1.193-0.912 1.678-0.021 0.48 0.28 1.006 0.905 1.579v0l0.653 0.6c2.018 1.852 4.039 2.793 6.063 2.823 2.019 0.025 4.15-1.184 6.393-3.628v0c1.501-1.636 2.416-3.137 2.743-4.504 0.318-1.367 0.165-2.666-0.46-3.9-0.625-1.233-1.607-2.465-2.948-3.695z" fill="#0074d9" data-fill-palette-color="primary"></path><path d="M236.546 83.844v0.001c-1.178-1.82-1.907-3.593-2.189-5.321-0.286-1.724-0.05-3.36 0.709-4.908 0.753-1.544 2.109-2.95 4.067-4.216v0c2.945-1.906 5.659-2.591 8.142-2.055 2.48 0.531 4.528 2.046 6.146 4.544v0c1.053 1.627 1.654 3.19 1.803 4.69 0.144 1.503-0.106 2.877-0.748 4.122-0.644 1.254-1.622 2.306-2.934 3.156v0c-1.279 0.828-2.385 1.078-3.317 0.75-0.936-0.333-1.81-1.129-2.625-2.386v0l-4.486-6.932c-1.051 0.806-1.631 1.76-1.739 2.863-0.113 1.106 0.233 2.283 1.04 3.528v0c0.642 0.993 1.305 1.69 1.988 2.094 0.683 0.403 1.187 0.667 1.512 0.794v0c0.285 0.113 0.503 0.3 0.657 0.561v0c0.132 0.204 0.284 0.524 0.457 0.96 0.164 0.434 0.259 0.908 0.287 1.422v0c0.037 0.359-0.069 0.619-0.317 0.78v0c-0.143 0.093-0.363 0.196-0.658 0.308v0c-0.167 0.069-0.418 0.157-0.755 0.266-0.331 0.105-0.658 0.18-0.981 0.225v0c-0.164 0.012-0.343-0.016-0.538-0.087v0c-0.294-0.115-0.72-0.332-1.278-0.651-0.553-0.323-1.194-0.835-1.922-1.538-0.726-0.711-1.5-1.701-2.322-2.969zM244.409 73.109v0l3.411 5.269c0.357 0.551 0.786 0.665 1.288 0.34v0c0.767-0.496 1.256-1.154 1.47-1.972 0.208-0.815 0.001-1.703-0.62-2.663v0c-0.675-1.042-1.504-1.593-2.489-1.651-0.985-0.059-2.005 0.167-3.06 0.677z" fill="#0074d9" data-fill-palette-color="primary"></path><path d="M247.214 100.073v0c0.799-1.043 1.764-2.138 2.896-3.283 1.13-1.152 2.298-2.247 3.503-3.287 1.212-1.042 2.34-1.934 3.383-2.675 1.045-0.735 1.882-1.219 2.511-1.451v0c0.24-0.089 0.461-0.097 0.663-0.024v0c0.895 0.3 1.904 0.824 3.027 1.573v0c0.183 0.136 0.302 0.277 0.356 0.425v0c0.057 0.154 0.057 0.336 0.001 0.546v0c-0.196 0.702-0.396 1.308-0.6 1.817-0.213 0.505-0.44 0.953-0.681 1.344v0c-0.104 0.192-0.301 0.342-0.591 0.448v0l0.093-0.034c-0.783 0.289-1.758 0.806-2.926 1.551-1.165 0.752-2.36 1.633-3.583 2.644-1.23 1.013-2.313 2.064-3.249 3.151v0l0.034 0.093c1.087 0.215 2.226 0.342 3.416 0.379 1.19 0.037 2.356 0.01 3.499-0.082 1.142-0.092 2.175-0.224 3.099-0.397 0.92-0.164 1.651-0.346 2.193-0.546v0l-0.074 0.027c0.29-0.107 0.533-0.13 0.73-0.069v0c0.441 0.152 0.907 0.352 1.397 0.598 0.481 0.243 1.02 0.555 1.616 0.937v0c0.181 0.129 0.297 0.265 0.35 0.407v0c0.061 0.166 0.061 0.345-0.002 0.536v0c-0.201 0.69-0.405 1.284-0.614 1.781-0.213 0.505-0.44 0.953-0.681 1.343v0c-0.111 0.174-0.299 0.31-0.564 0.408v0c-0.652 0.226-1.626 0.393-2.924 0.5-1.289 0.111-2.738 0.152-4.345 0.121-1.601-0.033-3.204-0.135-4.808-0.307-1.6-0.18-3.027-0.435-4.282-0.763v0c-0.771-0.192-1.345-0.411-1.723-0.657-0.378-0.246-0.719-0.782-1.023-1.608v0l-0.706-1.913c-0.32-0.869-0.422-1.514-0.304-1.936 0.12-0.415 0.424-0.948 0.913-1.597zM259.433 89.404l0.092-0.034-0.018 0.007c-0.025 0.009-0.049 0.018-0.074 0.027zM266.453 108.219v0l-0.074 0.027 0.037-0.013c0.012-0.005 0.025-0.009 0.037-0.014z" fill="#0074d9" data-fill-palette-color="primary"></path><path d="M14.679 193.812l-2.16-5.967c-0.49-1.353-0.691-2.439-0.604-3.26 0.087-0.821 0.472-1.495 1.155-2.022 0.685-0.52 1.67-1.013 2.954-1.478v0l17.64-6.387c1.309-0.474 2.391-0.729 3.244-0.766 0.855-0.03 1.576 0.243 2.163 0.821 0.586 0.577 1.124 1.542 1.614 2.895v0l1.955 5.401c1.136 3.138 1.433 5.762 0.891 7.873-0.538 2.102-1.854 3.532-3.949 4.29v0c-1.038 0.376-2.068 0.483-3.09 0.322-1.016-0.163-1.966-0.518-2.848-1.064-0.883-0.547-1.637-1.22-2.261-2.021v0l-0.084 0.03c0.264 1.211 0.265 2.391 0.004 3.54-0.258 1.141-0.761 2.162-1.512 3.063-0.744 0.898-1.733 1.571-2.968 2.018v0c-1.828 0.662-3.529 0.778-5.103 0.349-1.567-0.432-2.95-1.307-4.147-2.628-1.197-1.32-2.162-2.99-2.894-5.009zM34.109 181.716l-13.925 5.041c-0.877 0.318-1.447 0.702-1.71 1.154-0.263 0.451-0.238 1.109 0.076 1.974v0l0.54 1.492c0.479 1.322 1.203 2.261 2.173 2.818 0.97 0.557 2.045 0.622 3.225 0.194v0c1.124-0.407 1.865-1.119 2.223-2.136 0.358-1.017 0.313-2.146-0.136-3.387v0l0.007 0.018c-0.114-0.315-0.153-0.566-0.116-0.754v0c0.097-0.426 0.226-0.871 0.386-1.335 0.167-0.466 0.384-0.984 0.652-1.556v0c0.12-0.19 0.22-0.3 0.3-0.329v0c0.105-0.038 0.252-0.018 0.441 0.06v0c0.572 0.268 1.074 0.526 1.507 0.775 0.432 0.249 0.816 0.508 1.151 0.778v0c0.158 0.146 0.289 0.364 0.394 0.654v0l-0.006-0.019c0.28 0.772 0.824 1.378 1.633 1.819 0.809 0.441 1.828 0.438 3.057-0.006v0c1.248-0.452 1.952-1.101 2.114-1.95 0.157-0.839 0.039-1.803-0.355-2.889v0l-0.382-1.057c-0.313-0.865-0.709-1.389-1.188-1.571-0.478-0.183-1.166-0.112-2.061 0.212z" fill="#0074d9" data-fill-palette-color="primary"></path><path d="M27.329 219.309v0c-2.742-4.133-1.612-7.859 3.391-11.178v0l8.823-5.879c0.279-0.185 0.533-0.271 0.763-0.258v0c0.964 0.062 2.127 0.319 3.491 0.77v0c0.224 0.088 0.378 0.195 0.462 0.321v0c0.102 0.153 0.14 0.336 0.116 0.55v0c-0.053 0.752-0.131 1.412-0.237 1.978-0.114 0.565-0.251 1.077-0.41 1.538v0c-0.077 0.217-0.255 0.418-0.534 0.602v0l-8.35 5.541c-2.518 1.671-3.114 3.505-1.788 5.503v0c0.654 0.985 1.522 1.545 2.603 1.678 1.082 0.134 2.214-0.192 3.396-0.977v0l8.285-5.497c0.279-0.185 0.533-0.271 0.763-0.258v0c0.964 0.062 2.127 0.319 3.491 0.77v0c0.224 0.088 0.378 0.195 0.461 0.321v0c0.102 0.153 0.14 0.336 0.116 0.55v0c-0.053 0.752-0.131 1.412-0.236 1.978-0.114 0.565-0.251 1.077-0.411 1.537v0c-0.077 0.217-0.255 0.418-0.534 0.603v0l-15.099 10.019c-0.224 0.149-0.464 0.198-0.719 0.146-0.257-0.042-0.463-0.181-0.619-0.416v0l-1.733-2.611c-0.123-0.186-0.205-0.368-0.245-0.547-0.045-0.175-0.035-0.379 0.032-0.613v0l0.673-1.996-0.081-0.123c-0.392-0.008-0.889-0.092-1.492-0.252-0.608-0.156-1.283-0.52-2.025-1.092-0.744-0.563-1.528-1.465-2.353-2.708z" fill="#0074d9" data-fill-palette-color="primary"></path><path d="M60.58 229.099l-1.083 1.105 0.063 0.062c2.769-1.342 5.125-1.06 7.067 0.843v0c0.249 0.244 0.441 0.456 0.577 0.636 0.132 0.185 0.217 0.314 0.255 0.387v0c0.099 0.199 0.062 0.387-0.113 0.566v0l-3.525 3.595c-0.299 0.305-0.56 0.215-0.783-0.271v0c-0.071-0.171-0.19-0.393-0.355-0.665-0.175-0.272-0.461-0.604-0.86-0.995v0c-1.022-1.003-2.19-1.412-3.503-1.227-1.313 0.185-2.602 0.922-3.866 2.211v0l-6.382 6.508c-0.29 0.295-0.553 0.442-0.79 0.44-0.237-0.012-0.506-0.165-0.806-0.459v0l-3.067-3.008c-0.3-0.294-0.456-0.558-0.468-0.79-0.012-0.241 0.127-0.51 0.418-0.805v0l12.259-12.502c0.235-0.239 0.463-0.374 0.686-0.404v0c0.487-0.074 1.016-0.112 1.587-0.113 0.576 0.004 1.238 0.051 1.988 0.141v0c0.14 0.017 0.258 0.056 0.356 0.115 0.103 0.055 0.185 0.112 0.246 0.172v0c0.136 0.133 0.224 0.321 0.263 0.562v0c0.195 1.452 0.232 2.569 0.109 3.35v0c-0.026 0.205-0.117 0.387-0.273 0.546z" fill="#0074d9" data-fill-palette-color="primary"></path><path d="M63.456 256.098v0c-1.702-1.142-2.732-2.525-3.09-4.149-0.358-1.624 0.025-3.274 1.148-4.949v0c0.582-0.867 1.282-1.569 2.099-2.103 0.818-0.535 1.814-0.824 2.99-0.866 1.177-0.033 2.595 0.253 4.252 0.859 1.663 0.61 3.624 1.632 5.881 3.067v0c0.706-1.053 0.953-1.987 0.74-2.802-0.218-0.819-0.854-1.581-1.906-2.288v0c-0.944-0.633-1.828-0.989-2.653-1.068-0.816-0.081-1.336-0.113-1.56-0.097v0c-0.259 0.032-0.493-0.05-0.702-0.245v0c-0.282-0.252-0.559-0.553-0.831-0.902-0.274-0.358-0.564-0.746-0.869-1.164v0c-0.045-0.062-0.085-0.144-0.119-0.246-0.033-0.093-0.018-0.198 0.045-0.314v0c0.037-0.055 0.09-0.122 0.159-0.202 0.069-0.08 0.203-0.22 0.4-0.42v0c0.206-0.202 0.469-0.44 0.789-0.716 0.323-0.281 0.588-0.488 0.794-0.618v0c0.235-0.127 0.532-0.197 0.889-0.211v0c0.303-0.026 1.071 0.113 2.305 0.419 1.24 0.31 2.801 1.096 4.683 2.359v0c5.193 3.484 6.094 7.754 2.702 12.811v0l-6.581 9.811c-0.15 0.224-0.336 0.372-0.559 0.444-0.226 0.078-0.484 0.02-0.773-0.174v0l-2.602-1.746c-0.185-0.124-0.334-0.263-0.444-0.417-0.109-0.144-0.178-0.337-0.207-0.577v0l-0.144-2.102-0.123-0.082c-1.049 0.42-2.139 0.499-3.269 0.239-1.129-0.251-2.277-0.768-3.444-1.551zM68.063 253.351v0c1.064 0.714 2.05 0.983 2.957 0.809 0.906-0.183 1.629-0.513 2.17-0.988v0l1.29-1.923c-1.609-1.08-2.897-1.765-3.864-2.058-0.97-0.287-1.723-0.321-2.257-0.102-0.534 0.219-0.957 0.56-1.268 1.024v0c-0.45 0.671-0.556 1.276-0.317 1.816 0.248 0.538 0.678 1.012 1.289 1.422z" fill="#0074d9" data-fill-palette-color="primary"></path><path d="M93.813 261.784l-2.756 7.111c-0.15 0.386-0.334 0.625-0.552 0.716-0.222 0.083-0.53 0.048-0.921-0.103v0l-4.006-1.552c-0.392-0.152-0.639-0.332-0.742-0.541-0.106-0.217-0.084-0.519 0.065-0.905v0l10.21-26.351c0.121-0.312 0.279-0.529 0.475-0.651v0c0.82-0.499 1.919-0.961 3.295-1.386v0c0.234-0.057 0.421-0.059 0.561-0.004v0c0.172 0.066 0.309 0.194 0.413 0.381v0c0.391 0.645 0.707 1.229 0.948 1.752 0.233 0.527 0.417 1.024 0.553 1.493v0c0.062 0.221 0.033 0.488-0.089 0.8v0l-5.924 15.289 0.23 0.089c1.978 0.767 3.458 0.931 4.437 0.494 0.983-0.429 1.72-1.275 2.209-2.537v0l0.409-1.056c0.119-0.306 0.276-0.52 0.471-0.642v0c0.823-0.505 1.921-0.967 3.295-1.386v0c0.227-0.06 0.415-0.061 0.562-0.005v0c0.165 0.064 0.303 0.191 0.412 0.382v0c0.391 0.645 0.704 1.228 0.939 1.748 0.239 0.529 0.423 1.027 0.553 1.493v0c0.068 0.224 0.043 0.489-0.076 0.795v0l-0.409 1.056c-0.287 0.741-0.751 1.502-1.392 2.283-0.641 0.78-1.478 1.368-2.511 1.763-1.031 0.389-2.277 0.368-3.737-0.063v0l-0.04 0.101c0.905 0.9 1.6 1.898 2.084 2.995 0.488 1.105 0.824 2.211 1.008 3.317 0.184 1.107 0.26 2.13 0.227 3.068-0.026 0.941-0.104 1.714-0.233 2.319v0c-0.124 0.593-0.422 0.798-0.893 0.616v0l-5.118-1.983c-0.441-0.171-0.592-0.536-0.453-1.095v0c0.145-0.648 0.224-1.442 0.236-2.381 0.02-0.943-0.074-1.91-0.282-2.899-0.208-0.99-0.569-1.887-1.082-2.691-0.519-0.807-1.234-1.387-2.147-1.741v0z" fill="#0074d9" data-fill-palette-color="primary"></path><path d="M136.734 279.97v0c-4.645-0.226-6.85-2.754-6.615-7.583v0l0.476-9.783-2.362-0.115c-0.413-0.02-0.698-0.119-0.854-0.298-0.149-0.185-0.213-0.484-0.193-0.898v0l0.125-2.568c0.02-0.42 0.114-0.711 0.28-0.875 0.173-0.169 0.466-0.244 0.879-0.223v0l2.362 0.115 0.163-3.356c0.016-0.335 0.098-0.587 0.244-0.758v0c0.621-0.739 1.518-1.528 2.69-2.365v0c0.197-0.129 0.374-0.189 0.532-0.181v0c0.164 0.008 0.325 0.085 0.482 0.231v0c0.581 0.489 1.065 0.946 1.452 1.373 0.394 0.42 0.726 0.834 0.996 1.242v0c0.129 0.184 0.186 0.443 0.169 0.778v0l-0.164 3.356 3.701 0.18c0.413 0.02 0.698 0.123 0.853 0.308 0.149 0.178 0.214 0.477 0.193 0.897v0l-0.125 2.569c-0.02 0.413-0.113 0.705-0.279 0.874-0.172 0.163-0.465 0.234-0.879 0.214v0l-3.7-0.18-0.421 8.641c-0.108 2.224 0.644 3.376 2.258 3.454v0c0.249 0.012 0.48 0 0.692-0.035 0.213-0.042 0.396-0.086 0.549-0.131v0c0.301-0.097 0.509-0.13 0.627-0.098 0.117 0.032 0.218 0.191 0.302 0.478v0l1.053 3.287c0.108 0.354 0.01 0.599-0.292 0.736v0c-0.215 0.088-0.726 0.251-1.533 0.487-0.814 0.23-2.034 0.305-3.661 0.227z" fill="#0074d9" data-fill-palette-color="primary"></path><path d="M155.282 264.221l1.74 12.86c0.055 0.41 0.01 0.708-0.138 0.894-0.155 0.18-0.44 0.298-0.857 0.354v0l-4.257 0.576c-0.417 0.056-0.72 0.018-0.91-0.115-0.198-0.139-0.324-0.413-0.38-0.824v0l-3.79-28.004c-0.045-0.332-0.011-0.598 0.101-0.799v0c0.477-0.834 1.216-1.769 2.215-2.806v0c0.177-0.163 0.34-0.255 0.49-0.275v0c0.182-0.025 0.364 0.02 0.545 0.135v0c0.654 0.376 1.213 0.734 1.677 1.076 0.458 0.349 0.86 0.696 1.205 1.04v0c0.161 0.164 0.265 0.412 0.309 0.744v0l1.359 10.038 0.087-0.012c0.245-0.444 0.581-0.901 1.008-1.37 0.433-0.476 1.034-0.906 1.805-1.288 0.769-0.389 1.779-0.668 3.028-0.837v0c1.269-0.172 2.529-0.074 3.779 0.294 1.242 0.362 2.318 1.115 3.229 2.257 0.917 1.142 1.521 2.79 1.812 4.946v0l1.636 12.088c0.055 0.41 0.006 0.708-0.147 0.895-0.148 0.179-0.43 0.297-0.847 0.353v0l-4.257 0.576c-0.417 0.056-0.723 0.018-0.921-0.114-0.191-0.14-0.315-0.415-0.37-0.825v0l-1.482-10.955c-0.207-1.53-0.677-2.6-1.409-3.21-0.726-0.611-1.635-0.843-2.729-0.695v0c-1.074 0.145-1.876 0.492-2.405 1.041-0.529 0.549-0.904 1.203-1.126 1.962z" fill="#0074d9" data-fill-palette-color="primary"></path><path d="M191.772 269.522v0c-2.192 0.853-4.237 1.239-6.136 1.16-1.896-0.073-3.582-0.682-5.056-1.828-1.475-1.146-2.671-2.898-3.588-5.255v0c-1.379-3.545-1.516-6.579-0.411-9.101 1.111-2.526 3.172-4.374 6.184-5.546v0c1.959-0.762 3.755-1.056 5.388-0.881 1.624 0.172 3.032 0.738 4.224 1.698 1.183 0.957 2.083 2.228 2.699 3.814v0c0.6 1.543 0.624 2.774 0.073 3.693-0.56 0.916-1.599 1.669-3.118 2.259v0l-8.347 3.248c0.626 1.3 1.512 2.129 2.659 2.486 1.147 0.357 2.473 0.243 3.979-0.343v0c1.194-0.464 2.083-1.015 2.667-1.651 0.578-0.634 0.971-1.111 1.178-1.43v0c0.173-0.279 0.419-0.473 0.735-0.582v0c0.245-0.095 0.619-0.184 1.123-0.268 0.497-0.081 1.024-0.077 1.579 0.01v0c0.389 0.039 0.642 0.209 0.758 0.508v0c0.064 0.165 0.127 0.416 0.187 0.752v0c0.029 0.2 0.064 0.49 0.105 0.868 0.048 0.376 0.056 0.743 0.026 1.1v0c-0.019 0.169-0.088 0.355-0.206 0.557v0c-0.188 0.278-0.515 0.679-0.98 1.205-0.459 0.524-1.143 1.093-2.053 1.708-0.916 0.617-2.139 1.223-3.669 1.819zM182.097 258.812v0l6.345-2.469c0.661-0.257 0.873-0.692 0.635-1.304v0c-0.36-0.924-0.949-1.587-1.767-1.988-0.827-0.404-1.816-0.383-2.967 0.066v0c-1.261 0.491-2.03 1.251-2.305 2.281-0.279 1.039-0.26 2.177 0.059 3.414z" fill="#0074d9" data-fill-palette-color="primary"></path><path d="M230.964 243.536l-4.775 4.283c-1.071 0.961-2.003 1.554-2.797 1.781-0.794 0.227-1.563 0.122-2.307-0.314-0.739-0.44-1.565-1.169-2.477-2.186v0l-12.527-13.965c-0.93-1.037-1.571-1.944-1.924-2.721-0.348-0.782-0.365-1.553-0.049-2.313 0.316-0.76 1.009-1.62 2.08-2.58v0l4.775-4.283c2.225-1.996 4.474-3.413 6.748-4.253 2.269-0.835 4.579-0.882 6.929-0.14 2.351 0.742 4.763 2.491 7.237 5.249v0c2.474 2.758 3.994 5.392 4.56 7.902 0.571 2.515 0.357 4.899-0.639 7.152-0.997 2.262-2.609 4.392-4.834 6.388zM213.497 226.35l-0.682 0.612c-0.685 0.614-1.022 1.177-1.013 1.69 0.009 0.512 0.332 1.123 0.968 1.831v0l9.205 10.262c0.623 0.694 1.193 1.079 1.71 1.154 0.521 0.079 1.124-0.188 1.808-0.802v0l0.712-0.639c2.22-1.991 3.45-4.078 3.689-6.261 0.239-2.183-0.845-4.616-3.253-7.3v0c-1.605-1.79-3.132-2.931-4.58-3.424-1.439-0.492-2.859-0.467-4.26 0.076-1.397 0.547-2.832 1.481-4.304 2.801z" fill="#0074d9" data-fill-palette-color="primary"></path><path d="M254.491 216.545v0c-1.295 1.963-2.739 3.462-4.334 4.496-1.589 1.037-3.316 1.515-5.182 1.433-1.866-0.082-3.855-0.819-5.966-2.21v0c-3.175-2.094-5.042-4.489-5.601-7.187-0.555-2.703 0.057-5.403 1.836-8.101v0c1.157-1.755 2.452-3.033 3.886-3.835 1.424-0.8 2.9-1.153 4.427-1.058 1.518 0.096 2.987 0.612 4.408 1.549v0c1.382 0.911 2.114 1.901 2.196 2.97 0.073 1.071-0.339 2.286-1.236 3.647v0l-4.93 7.477c1.262 0.699 2.465 0.862 3.607 0.49 1.142-0.372 2.158-1.233 3.048-2.581v0c0.705-1.069 1.112-2.033 1.22-2.89 0.105-0.851 0.149-1.467 0.133-1.848v0c-0.02-0.328 0.068-0.628 0.263-0.9v0c0.145-0.219 0.398-0.509 0.761-0.868 0.359-0.353 0.79-0.655 1.294-0.905v0c0.34-0.193 0.644-0.201 0.912-0.024v0c0.148 0.098 0.344 0.266 0.588 0.505v0c0.139 0.147 0.335 0.363 0.588 0.648 0.256 0.279 0.476 0.573 0.657 0.882v0c0.083 0.149 0.134 0.34 0.154 0.573v0c0.007 0.335-0.027 0.852-0.102 1.55-0.071 0.693-0.3 1.553-0.686 2.581-0.39 1.033-1.037 2.235-1.941 3.606zM240.403 213.405v0l3.748-5.684c0.391-0.592 0.312-1.069-0.237-1.431v0c-0.828-0.546-1.692-0.746-2.591-0.599-0.908 0.149-1.702 0.738-2.382 1.77v0c-0.745 1.13-0.932 2.195-0.561 3.194 0.373 1.009 1.047 1.926 2.023 2.75z" fill="#0074d9" data-fill-palette-color="primary"></path><path d="M262.846 194.837v0c-1.409 0.289-2.981 0.502-4.718 0.639-1.743 0.135-3.482 0.201-5.216 0.198-1.731-0.008-3.288-0.081-4.669-0.216-1.387-0.138-2.419-0.335-3.095-0.591v0c-0.258-0.098-0.446-0.25-0.565-0.456v0c-0.516-0.883-0.967-2.03-1.354-3.44v0c-0.055-0.245-0.053-0.445 0.005-0.598v0c0.065-0.172 0.196-0.323 0.392-0.453v0c0.658-0.44 1.252-0.794 1.783-1.064 0.537-0.268 1.04-0.474 1.509-0.62v0c0.225-0.076 0.492-0.056 0.799 0.06v0l-0.093-0.035c0.848 0.321 2.015 0.586 3.502 0.797 1.493 0.213 3.102 0.34 4.828 0.382 1.726 0.041 3.36-0.046 4.903-0.264v0l0.038-0.101c-0.744-0.948-1.588-1.864-2.532-2.748-0.953-0.88-1.929-1.688-2.929-2.424-1-0.736-1.94-1.362-2.819-1.877-0.877-0.521-1.608-0.892-2.192-1.113v0l0.074 0.028c-0.307-0.116-0.522-0.271-0.646-0.465v0c-0.251-0.432-0.49-0.923-0.718-1.473-0.222-0.547-0.439-1.188-0.653-1.922v0c-0.059-0.233-0.06-0.426-0.002-0.58v0c0.07-0.184 0.198-0.329 0.385-0.433v0c0.653-0.427 1.244-0.773 1.772-1.037 0.532-0.255 1.034-0.459 1.505-0.611v0c0.221-0.064 0.473-0.043 0.756 0.064v0c0.702 0.279 1.62 0.833 2.753 1.663 1.137 0.837 2.353 1.838 3.648 3.001 1.295 1.164 2.535 2.387 3.721 3.671 1.192 1.286 2.186 2.512 2.981 3.677v0c0.492 0.706 0.804 1.291 0.938 1.755 0.137 0.473 0.036 1.158-0.303 2.056v0l-0.784 2.074c-0.353 0.934-0.727 1.533-1.122 1.798-0.399 0.257-1.026 0.476-1.882 0.658zM245.222 194.895l-0.092-0.035 0.018 0.007c0.025 0.009 0.049 0.019 0.074 0.028zM252.859 174.47v0l0.073 0.028-0.036-0.014c-0.012-0.005-0.025-0.009-0.037-0.014z" fill="#0074d9" data-fill-palette-color="primary"></path><path d="M4.292 143.843c0-6.38 5.172-11.552 11.552-11.551 6.38 0 11.552 5.172 11.552 11.551 0 6.38-5.172 11.552-11.552 11.552-6.38 0-11.552-5.172-11.552-11.552z" fill="#0074d9" data-fill-palette-color="primary"></path><path d="M252.604 143.843c0-6.38 5.172-11.552 11.552-11.551 6.38 0 11.552 5.172 11.552 11.551 0 6.38-5.172 11.552-11.552 11.552-6.38 0-11.552-5.172-11.552-11.552z" fill="#0074d9" data-fill-palette-color="primary"></path></g><g id="text-1"></g></svg></g></svg></g></svg></g><g></g></svg></g><defs></defs></svg><rect width="280" height="280" fill="none" stroke="none" visibility="hidden"></rect></g></svg></g></svg>